--40000LOG 15:22:45:827147464 Waiting for file /home/seluser/videos/vid_chrome_or_firefox_40000* to be created...
Won't start video recording due to VIDEO env var false
ffmpeg version 2.8.15-0ubuntu0.16.04.1 Copyright (c) 2000-2018 the FFmpeg developers
  built with gcc 5.4.0 (Ubuntu 5.4.0-6ubuntu1~16.04.10) 20160609
  configuration: --prefix=/usr --extra-version=0ubuntu0.16.04.1 --build-suffix=-ffmpeg --toolchain=hardened --libdir=/usr/lib/x86_64-linux-gnu --incdir=/usr/include/x86_64-linux-gnu --cc=cc --cxx=g++ --enable-gpl --enable-shared --disable-stripping --disable-decoder=libopenjpeg --disable-decoder=libschroedinger --enable-avresample --enable-avisynth --enable-gnutls --enable-ladspa --enable-libass --enable-libbluray --enable-libbs2b --enable-libcaca --enable-libcdio --enable-libflite --enable-libfontconfig --enable-libfreetype --enable-libfribidi --enable-libgme --enable-libgsm --enable-libmodplug --enable-libmp3lame --enable-libopenjpeg --enable-libopus --enable-libpulse --enable-librtmp --enable-libschroedinger --enable-libshine --enable-libsnappy --enable-libsoxr --enable-libspeex --enable-libssh --enable-libtheora --enable-libtwolame --enable-libvorbis --enable-libvpx --enable-libwavpack --enable-libwebp --enable-libx265 --enable-libxvid --enable-libzvbi --enable-openal --enable-opengl --enable-x11grab --enable-libdc1394 --enable-libiec61883 --enable-libzmq --enable-frei0r --enable-libx264 --enable-libopencv
  libavutil      54. 31.100 / 54. 31.100
  libavcodec     56. 60.100 / 56. 60.100
  libavformat    56. 40.101 / 56. 40.101
  libavdevice    56.  4.100 / 56.  4.100
  libavfilter     5. 40.101 /  5. 40.101
  libavresample   2.  1.  0 /  2.  1.  0
  libswscale      3.  1.101 /  3.  1.101
  libswresample   1.  2.101 /  1.  2.101
  libpostproc    53.  3.100 / 53.  3.100
Input #0, x11grab, from ':30.0':
  Duration: N/A, start: 1578925366.028025, bitrate: N/A
    Stream #0:0: Video: rawvideo (BGR[0] / 0x524742), bgr0, 1920x1080, 29.97 fps, 29.97 tbr, 1000k tbn, 29.97 tbc
[libx264 @ 0x10090e0] using cpu capabilities: MMX2 SSE2Fast SSSE3 SSE4.2 AVX FMA3 AVX2 LZCNT BMI2
[libx264 @ 0x10090e0] profile Constrained Baseline, level 4.0
[libx264 @ 0x10090e0] 264 - core 148 r2643 5c65704 - H.264/MPEG-4 AVC codec - Copyleft 2003-2015 - http://www.videolan.org/x264.html - options: cabac=0 ref=1 deblock=0:0:0 analyse=0:0 me=dia subme=0 psy=1 psy_rd=1.00:0.00 mixed_ref=0 me_range=16 chroma_me=1 trellis=0 8x8dct=0 cqm=0 deadzone=21,11 fast_pskip=1 chroma_qp_offset=0 threads=3 lookahead_threads=1 sliced_threads=0 nr=0 decimate=1 interlaced=0 bluray_compat=0 constrained_intra=0 bframes=0 weightp=0 keyint=250 keyint_min=10 scenecut=0 intra_refresh=0 rc=crf mbtree=0 crf=23.0 qcomp=0.60 qpmin=0 qpmax=69 qpstep=4 ip_ratio=1.40 aq=0
Output #0, matroska, to '/home/seluser/videos/vid_chrome_or_firefox_40000.mkv':
  Metadata:
    encoder         : Lavf56.40.101
    Stream #0:0: Video: h264 (libx264) (H264 / 0x34363248), yuv420p, 1920x1080, q=-1--1, 10 fps, 1k tbn, 10 tbc
    Metadata:
      encoder         : Lavc56.60.100 libx264
Stream mapping:
  Stream #0:0 -> #0:0 (rawvideo (native) -> h264 (libx264))
Press [q] to stop, [?] for help
frame=    4 fps=0.0 q=0.0 size=       1kB time=00:00:00.00 bitrate=N/A    
frame=    8 fps=7.7 q=9.0 size=      52kB time=00:00:00.70 bitrate= 603.0kbits/s    
frame=   13 fps=8.4 q=9.0 size=      53kB time=00:00:01.40 bitrate= 310.3kbits/s dup=0 drop=2    
frame=   18 fps=8.6 q=16.0 size=      53kB time=00:00:01.90 bitrate= 229.9kbits/s dup=0 drop=3    
frame=   24 fps=9.0 q=10.0 size=      97kB time=00:00:02.50 bitrate= 318.7kbits/s dup=0 drop=5    
frame=   29 fps=9.1 q=9.0 size=     105kB time=00:00:03.00 bitrate= 286.5kbits/s dup=0 drop=9    
--40000LOG 15:22:49:665093252 Trapped SIGTERM or SIGINT so shutting down ffmpeg gracefully...
--40000LOG 15:22:49:687978374 Will kill VID_TOOL_PID=954 ...
frame=   32 fps=8.9 q=-1.0 Lsize=     107kB time=00:00:03.70 bitrate= 236.5kbits/s dup=0 drop=17    
video:106kB audio:0kB subtitle:0kB other streams:0kB global headers:0kB muxing overhead: 0.872404%
[libx264 @ 0x10090e0] frame I:1     Avg QP:20.00  size: 31331
[libx264 @ 0x10090e0] frame P:31    Avg QP:10.19  size:  2468
[libx264 @ 0x10090e0] mb I  I16..4: 100.0%  0.0%  0.0%
[libx264 @ 0x10090e0] mb P  I16..4:  5.5%  0.0%  0.0%  P16..4:  1.1%  0.0%  0.0%  0.0%  0.0%    skip:93.4%
[libx264 @ 0x10090e0] coded y,uvDC,uvAC intra: 3.8% 2.6% 2.4% inter: 0.4% 0.6% 0.2%
[libx264 @ 0x10090e0] i16 v,h,dc,p: 89%  9%  1%  0%
[libx264 @ 0x10090e0] i8c dc,h,v,p: 89%  7%  4%  0%
[libx264 @ 0x10090e0] kb/s:233.16
Exiting normally, received signal 2.
--40000LOG 15:22:50:873413600 Tried to kill -SIGTERM VID_TOOL_PID=954
--40000LOG 15:22:50:903392661 Waiting up to 6s for VID_TOOL_PID=954 to end with SIGTERM...
--40000LOG 15:22:50:994507149 wait_pid successfully managed to SIGTERM:VID_TOOL_PID=954 within less than 6s
--40000LOG 15:22:51:015036322 Will try to fix the videos...
--40000LOG 15:22:51:897419539 Fixing perms for /home/seluser/videos/vid_chrome_or_firefox_40000.mkv*
--40000LOG 15:22:52:042605408 Changing video encoding from mkv to mp4...
--40000LOG 15:22:56:010035358 Conversion from mkv to mp4 succeeded!
--40000LOG 15:22:56:061104618 Cleaning up /home/seluser/videos/vid_chrome_or_firefox_40000.mkv ...
--40000LOG 15:22:56:109177656 Optimizing /home/seluser/videos/vid_chrome_or_firefox_40000.mp4 for HTTP streaming...
--40000LOG 15:22:56:259152822 Succeeded to mp4box_retry.sh within 8s
--40000LOG 15:22:56:272477052 ffmpeg shutdown complete.
